<svg
    width="800px"
    height="600px"
    viewBox="0 0 800 600"
    version="1.1"
    xmlns="http://www.w3.org/2000/svg"
    xmlns:xlink="http://www.w3.org/1999/xlink">
    <!-- Left Page -->
    <path d="M50 100 Q200 50, 350 100 L350 500 Q200 450, 50 500 Z" fill="none" stroke="currentColor" stroke-width="3"/>
    <!-- Right Page -->
    <path d="M750 100 Q600 50, 450 100 L450 500 Q600 450, 750 500 Z" fill="none" stroke="currentColor" stroke-width="3"/>
    <!-- Spine -->
    <path d="M350 100 Q400 80, 450 100 L450 500 Q400 480, 350 500 Z" fill="none" stroke="currentColor" stroke-width="3"/>
    
    <!-- Placeholder Text Bars on Left Page -->
    <rect x="100" y="130" width="180" height="15" fill="#000" rx="5" ry="5" />
    <rect x="100" y="170" width="180" height="15" fill="#000" rx="5" ry="5" />
    <rect x="100" y="210" width="180" height="15" fill="#000" rx="5" ry="5" />
    <rect x="100" y="250" width="180" height="15" fill="#000" rx="5" ry="5" />
    <rect x="100" y="290" width="180" height="15" fill="#000" rx="5" ry="5" />
    <rect x="100" y="330" width="180" height="15" fill="#000" rx="5" ry="5" />
    <rect x="100" y="370" width="180" height="15" fill="#000" rx="5" ry="5" />
    <rect x="100" y="410" width="180" height="15" fill="#000" rx="5" ry="5" />

    <!-- Numbers on Left Page -->
    <text x="80" y="144" font-family="Georgia" font-size="18" fill="currentColor">1.</text>
    <text x="80" y="184" font-family="Georgia" font-size="18" fill="currentColor">2.</text>
    <text x="80" y="224" font-family="Georgia" font-size="18" fill="currentColor">3.</text>
    <text x="80" y="264" font-family="Georgia" font-size="18" fill="currentColor">4.</text>
    <text x="80" y="304" font-family="Georgia" font-size="18" fill="currentColor">5.</text>
    <text x="80" y="344" font-family="Georgia" font-size="18" fill="currentColor">6.</text>
    <text x="80" y="384" font-family="Georgia" font-size="18" fill="currentColor">7.</text>
    <text x="80" y="424" font-family="Georgia" font-size="18" fill="currentColor">8.</text>
    
    <!-- Placeholder Text Bars on Right Page -->
    <rect x="500" y="130" width="180" height="15" fill="#000" rx="5" ry="5" />
    <rect x="500" y="170" width="180" height="15" fill="#000" rx="5" ry="5" />
    <rect x="500" y="210" width="180" height="15" fill="#000" rx="5" ry="5" />
    <rect x="500" y="250" width="180" height="15" fill="#000" rx="5" ry="5" />
    <rect x="500" y="290" width="180" height="15" fill="#000" rx="5" ry="5" />
    <rect x="500" y="330" width="180" height="15" fill="#000" rx="5" ry="5" />
    <rect x="500" y="370" width="180" height="15" fill="#000" rx="5" ry="5" />
    <rect x="500" y="410" width="180" height="15" fill="#000" rx="5" ry="5" />
</svg>
